<svg xmlns="http://www.w3.org/2000/svg" xmlns:xlink="http://www.w3.org/1999/xlink" width="54px" height="54px">
  <path fill-rule="evenodd" fill="rgb(255, 255, 255)" d="M38.271,33.559 C38.686,33.142 39.360,33.142 39.776,33.559 L52.658,46.452 C54.381,48.177 54.381,50.983 52.658,52.707 C51.796,53.568 50.665,54.000 49.533,54.000 C48.402,54.000 47.270,53.569 46.409,52.707 L33.527,39.814 C33.327,39.613 33.215,39.342 33.215,39.060 C33.215,38.777 33.327,38.505 33.527,38.306 L34.042,37.791 L32.778,36.526 C29.131,39.339 24.743,40.747 20.354,40.747 C15.138,40.747 9.923,38.760 5.953,34.786 C-1.988,26.838 -1.988,13.906 5.953,5.959 C13.893,-1.989 26.814,-1.989 34.754,5.959 C42.066,13.278 42.644,24.821 36.491,32.809 L37.755,34.073 L38.271,33.559 ZM35.547,36.283 L36.250,35.581 L35.101,34.431 C34.987,34.550 34.871,34.669 34.754,34.786 C34.637,34.904 34.518,35.019 34.398,35.133 L35.547,36.283 ZM38.590,20.372 C38.590,15.497 36.693,10.913 33.249,7.465 C29.804,4.017 25.224,2.119 20.353,2.119 C15.482,2.119 10.903,4.017 7.458,7.465 C4.014,10.913 2.117,15.497 2.117,20.372 C2.117,25.248 4.013,29.832 7.458,33.279 C10.903,36.728 15.482,38.626 20.354,38.626 C25.225,38.626 29.804,36.727 33.249,33.279 C36.693,29.832 38.590,25.248 38.590,20.372 ZM35.785,39.060 L47.914,51.200 C48.807,52.094 50.259,52.094 51.152,51.200 C52.045,50.307 52.045,48.853 51.152,47.959 L39.023,35.818 L35.785,39.060 ZM20.354,36.379 C16.082,36.379 12.066,34.715 9.046,31.691 C6.025,28.668 4.362,24.649 4.362,20.374 C4.362,16.097 6.025,12.078 9.046,9.054 C12.066,6.032 16.082,4.366 20.354,4.366 C24.625,4.366 28.641,6.032 31.661,9.054 C34.681,12.078 36.345,16.097 36.345,20.374 C36.345,24.648 34.681,28.668 31.661,31.691 C28.641,34.715 24.625,36.379 20.354,36.379 ZM30.156,10.560 C27.538,7.940 24.056,6.496 20.354,6.496 C16.651,6.496 13.169,7.940 10.551,10.560 C5.146,15.971 5.146,24.775 10.551,30.184 C13.169,32.805 16.651,34.249 20.354,34.249 C24.056,34.249 27.538,32.805 30.156,30.184 C35.561,24.775 35.561,15.971 30.156,10.560 ZM20.373,32.856 C19.877,32.856 19.378,32.827 18.877,32.767 C18.293,32.697 17.876,32.168 17.945,31.583 C18.014,30.999 18.544,30.581 19.127,30.651 C22.299,31.028 25.411,29.949 27.666,27.692 C28.082,27.276 28.756,27.276 29.171,27.691 C29.587,28.107 29.587,28.783 29.171,29.199 C26.808,31.564 23.665,32.856 20.373,32.856 ZM28.419,13.365 C28.146,13.365 27.874,13.261 27.666,13.053 C27.078,12.465 26.424,11.949 25.720,11.521 C25.218,11.216 25.058,10.560 25.364,10.057 C25.669,9.554 26.324,9.395 26.826,9.701 C27.674,10.217 28.464,10.838 29.171,11.546 C29.587,11.963 29.587,12.636 29.171,13.053 C28.963,13.261 28.691,13.365 28.419,13.365 ZM21.954,10.146 C18.699,9.637 15.367,10.725 13.041,13.053 C12.833,13.261 12.561,13.365 12.288,13.365 C12.016,13.365 11.743,13.261 11.536,13.053 C11.120,12.636 11.120,11.963 11.536,11.546 C14.340,8.739 18.357,7.427 22.282,8.040 C22.862,8.131 23.260,8.675 23.169,9.257 C23.079,9.838 22.535,10.236 21.954,10.146 ZM13.041,27.692 C13.601,28.254 14.223,28.748 14.889,29.164 C15.388,29.475 15.541,30.132 15.229,30.631 C15.028,30.956 14.681,31.133 14.325,31.133 C14.133,31.133 13.938,31.081 13.763,30.972 C12.960,30.471 12.211,29.874 11.536,29.199 C11.120,28.783 11.120,28.108 11.536,27.692 C11.951,27.276 12.625,27.276 13.041,27.692 Z"/>
</svg>