<svg xmlns="http://www.w3.org/2000/svg" xmlns:xlink="http://www.w3.org/1999/xlink" width="24px" height="24px">
  <path fill-rule="evenodd" fill="#3367df" d="M23.431,11.367 C23.391,11.372 23.355,11.377 23.315,11.377 C22.985,11.377 22.696,11.144 22.640,10.810 C22.239,8.449 21.123,6.297 19.409,4.585 C17.694,2.877 15.538,1.758 13.174,1.358 C12.799,1.292 12.550,0.943 12.611,0.568 C12.677,0.198 13.027,-0.055 13.397,0.010 C16.045,0.462 18.455,1.707 20.373,3.622 C22.290,5.537 23.538,7.943 23.989,10.587 C24.055,10.957 23.802,11.311 23.431,11.367 ZM13.210,4.362 C14.818,4.635 16.284,5.395 17.445,6.555 C18.607,7.715 19.368,9.179 19.642,10.784 C19.703,11.159 19.454,11.514 19.079,11.575 C19.038,11.580 19.003,11.585 18.962,11.585 C18.633,11.585 18.343,11.352 18.288,11.017 C18.059,9.690 17.435,8.484 16.471,7.522 C15.508,6.560 14.300,5.932 12.971,5.709 C12.596,5.649 12.352,5.289 12.418,4.919 C12.484,4.549 12.834,4.301 13.210,4.362 ZM8.664,8.875 C8.289,9.255 7.904,9.650 7.488,10.030 C7.797,10.713 8.223,11.387 8.857,12.187 C10.166,13.793 11.531,15.034 13.032,15.986 C13.179,16.078 13.352,16.164 13.534,16.255 C13.661,16.321 13.793,16.387 13.925,16.458 L15.528,14.862 C16.040,14.350 16.639,14.082 17.263,14.082 C17.892,14.082 18.485,14.355 18.978,14.867 L21.762,17.658 C22.275,18.165 22.544,18.767 22.544,19.396 C22.544,20.019 22.280,20.626 21.778,21.148 C21.560,21.376 21.336,21.594 21.118,21.802 C20.799,22.111 20.494,22.399 20.231,22.718 C20.225,22.729 20.215,22.734 20.210,22.744 C19.439,23.580 18.455,24.000 17.283,24.000 C17.182,24.000 17.070,23.995 16.964,23.990 C15.224,23.879 13.666,23.225 12.499,22.673 C9.446,21.199 6.772,19.107 4.550,16.458 C2.719,14.259 1.492,12.208 0.670,9.994 C0.335,9.093 -0.101,7.715 0.020,6.236 C0.102,5.319 0.472,4.529 1.121,3.881 L2.846,2.143 C2.851,2.138 2.851,2.138 2.856,2.133 C3.363,1.647 3.962,1.388 4.581,1.388 C5.200,1.388 5.788,1.647 6.280,2.133 C6.610,2.437 6.930,2.761 7.234,3.075 C7.386,3.237 7.548,3.399 7.706,3.556 L9.090,4.939 C10.156,6.003 10.156,7.381 9.090,8.444 C8.948,8.586 8.806,8.733 8.664,8.875 ZM8.127,5.907 L6.742,4.524 C6.580,4.357 6.417,4.194 6.260,4.032 C5.950,3.713 5.656,3.414 5.347,3.126 C5.342,3.121 5.337,3.116 5.332,3.110 C5.169,2.948 4.911,2.756 4.591,2.756 C4.332,2.756 4.068,2.882 3.820,3.116 L2.090,4.843 C1.669,5.263 1.441,5.754 1.390,6.347 C1.314,7.274 1.486,8.257 1.958,9.518 C2.724,11.585 3.881,13.510 5.611,15.591 C7.706,18.089 10.227,20.059 13.098,21.447 C14.148,21.949 15.548,22.536 17.055,22.632 C17.131,22.638 17.212,22.638 17.288,22.638 C18.080,22.638 18.683,22.379 19.196,21.832 C19.510,21.462 19.845,21.133 20.175,20.819 C20.393,20.606 20.596,20.413 20.794,20.201 C21.311,19.664 21.311,19.132 20.789,18.616 L17.993,15.824 C17.988,15.819 17.988,15.819 17.983,15.814 C17.826,15.642 17.567,15.445 17.253,15.445 C16.933,15.445 16.659,15.653 16.487,15.824 L14.752,17.557 C14.666,17.643 14.402,17.907 13.981,17.907 C13.813,17.907 13.651,17.866 13.479,17.780 C13.458,17.769 13.438,17.754 13.418,17.745 C13.271,17.654 13.098,17.567 12.915,17.476 C12.713,17.375 12.499,17.268 12.292,17.136 C10.663,16.108 9.187,14.766 7.787,13.044 L7.782,13.038 C7.011,12.061 6.503,11.241 6.143,10.369 C6.138,10.354 6.133,10.339 6.128,10.324 C6.037,10.035 5.956,9.610 6.392,9.174 C6.397,9.164 6.407,9.158 6.417,9.149 C6.859,8.753 7.264,8.348 7.690,7.912 C7.838,7.771 7.980,7.624 8.127,7.477 C8.664,6.940 8.664,6.444 8.127,5.907 Z"/>
</svg>