<svg xmlns="http://www.w3.org/2000/svg" xmlns:xlink="http://www.w3.org/1999/xlink" width="18px" height="24px">
  <path fill-rule="evenodd"  fill="rgb(255, 255, 255)" d="M16.000,24.000 L2.000,24.000 C0.897,24.000 -0.000,23.103 -0.000,22.000 L-0.000,2.000 C-0.000,0.897 0.897,0.000 2.000,0.000 L12.500,0.000 C12.633,0.000 12.760,0.053 12.854,0.146 L17.854,5.147 C17.947,5.240 18.000,5.367 18.000,5.500 L18.000,22.000 C18.000,23.103 17.102,24.000 16.000,24.000 ZM13.000,1.707 L13.000,4.000 C13.000,4.551 13.448,5.000 14.000,5.000 L16.293,5.000 L13.000,1.707 ZM17.000,5.999 L14.000,5.999 C12.897,5.999 12.000,5.103 12.000,4.000 L12.000,1.000 L2.000,1.000 C1.448,1.000 1.000,1.448 1.000,2.000 L1.000,22.000 C1.000,22.551 1.448,23.000 2.000,23.000 L16.000,23.000 C16.552,23.000 17.000,22.551 17.000,22.000 L17.000,5.999 ZM14.500,12.000 L3.500,12.000 C3.224,12.000 3.000,11.776 3.000,11.500 C3.000,11.224 3.224,11.000 3.500,11.000 L14.500,11.000 C14.776,11.000 15.000,11.224 15.000,11.500 C15.000,11.776 14.776,12.000 14.500,12.000 ZM14.500,9.000 L3.500,9.000 C3.224,9.000 3.000,8.776 3.000,8.500 C3.000,8.224 3.224,8.000 3.500,8.000 L14.500,8.000 C14.776,8.000 15.000,8.224 15.000,8.500 C15.000,8.776 14.776,9.000 14.500,9.000 ZM9.500,5.999 L3.500,5.999 C3.224,5.999 3.000,5.776 3.000,5.500 C3.000,5.223 3.224,5.000 3.500,5.000 L9.500,5.000 C9.776,5.000 10.000,5.223 10.000,5.500 C10.000,5.776 9.776,5.999 9.500,5.999 ZM4.500,16.000 C5.080,16.000 6.000,16.407 6.000,17.500 C6.000,18.136 5.558,18.961 5.007,19.673 C5.211,19.862 5.396,19.989 5.505,20.000 C5.615,19.922 5.919,19.304 6.065,19.007 C6.364,18.401 6.562,18.000 7.000,18.000 C7.513,18.000 7.672,18.531 7.875,19.205 C7.935,19.405 8.033,19.734 8.120,19.931 C8.487,19.682 9.414,18.868 10.149,18.143 C10.347,17.951 10.663,17.951 10.857,18.150 C11.050,18.346 11.048,18.662 10.851,18.856 C8.674,21.000 8.167,21.000 8.000,21.000 C7.379,21.000 7.156,20.287 6.926,19.524 C6.577,20.231 6.176,21.000 5.500,21.000 C5.152,21.000 4.736,20.771 4.345,20.423 C4.158,20.608 3.973,20.771 3.800,20.900 C3.710,20.967 3.604,21.000 3.500,21.000 C3.349,21.000 3.198,20.931 3.100,20.800 C2.934,20.579 2.979,20.266 3.200,20.100 C3.358,19.981 3.519,19.837 3.678,19.679 C3.280,19.131 3.000,18.506 3.000,18.000 C3.000,16.858 3.910,16.000 4.500,16.000 ZM4.348,18.886 C4.731,18.357 5.000,17.819 5.000,17.500 C5.000,17.024 4.583,17.000 4.500,17.000 C4.447,17.033 4.000,17.390 4.000,18.000 C4.000,18.256 4.145,18.577 4.348,18.886 ZM7.000,14.501 C7.000,14.224 7.224,14.000 7.500,14.000 L14.500,14.000 C14.776,14.000 15.000,14.224 15.000,14.501 C15.000,14.776 14.776,15.000 14.500,15.000 L7.500,15.000 C7.224,15.000 7.000,14.776 7.000,14.501 Z"/>
</svg>