<svg xmlns="http://www.w3.org/2000/svg" xmlns:xlink="http://www.w3.org/1999/xlink" width="48px" height="43px">
  <path fill-rule="evenodd" fill="rgb(255, 255, 255)" d="M45.869,24.997 C44.900,24.091 43.918,23.710 43.728,23.641 L40.492,22.305 L38.226,20.823 L38.226,20.069 C39.918,19.192 41.151,17.559 41.464,15.625 C42.886,15.438 43.987,14.229 43.987,12.769 C43.987,12.020 43.697,11.337 43.223,10.824 L43.223,8.062 C43.223,3.616 39.573,-0.000 35.087,-0.000 L34.472,-0.000 C30.779,-0.000 27.557,2.458 26.611,5.984 C25.901,5.794 25.155,5.690 24.385,5.690 L23.737,5.690 C22.926,5.690 22.142,5.806 21.398,6.016 C20.462,2.472 17.232,-0.000 13.528,-0.000 L12.913,-0.000 C8.427,-0.000 4.777,3.616 4.777,8.062 L4.777,10.824 C4.303,11.337 4.013,12.020 4.013,12.769 C4.013,14.229 5.114,15.438 6.536,15.625 C6.849,17.559 8.081,19.192 9.774,20.069 L9.774,20.823 L7.508,22.305 L4.272,23.641 C4.082,23.710 3.100,24.091 2.131,24.997 C1.159,25.907 0.000,27.542 0.000,30.169 L0.000,34.733 C0.000,35.148 0.339,35.485 0.758,35.485 L10.275,35.485 C10.134,36.068 10.050,36.717 10.050,37.439 L10.050,42.248 C10.050,42.662 10.389,43.000 10.808,43.000 L19.812,43.000 L21.805,43.000 L26.346,43.000 L26.348,43.000 L28.187,43.000 L28.615,43.000 C29.033,43.000 29.373,42.664 29.373,42.249 C29.373,41.834 29.033,41.498 28.615,41.498 L28.187,41.498 L26.992,41.498 L26.077,35.876 L26.434,34.932 L26.975,35.326 C27.106,35.423 27.264,35.473 27.424,35.473 C27.485,35.473 27.546,35.465 27.606,35.451 C27.824,35.398 28.007,35.251 28.106,35.050 L30.164,30.858 L32.910,31.992 C32.927,31.999 32.943,32.005 32.960,32.011 C32.995,32.022 36.434,33.216 36.434,37.439 L36.434,41.498 L33.290,41.498 L33.290,37.219 C33.290,36.805 32.951,36.469 32.532,36.469 C32.114,36.469 31.774,36.805 31.774,37.219 L31.774,41.498 L30.973,41.498 C30.554,41.498 30.215,41.834 30.215,42.249 C30.215,42.664 30.554,43.000 30.973,43.000 L37.192,43.000 C37.611,43.000 37.950,42.654 37.950,42.240 L37.950,37.438 C37.950,36.717 37.866,36.068 37.725,35.485 L47.242,35.485 C47.661,35.485 48.000,35.140 48.000,34.725 L48.000,30.168 C48.000,27.542 46.841,25.907 45.869,24.997 ZM40.027,14.655 C40.027,17.194 37.942,19.260 35.380,19.260 L34.207,19.260 C34.044,19.260 33.880,19.250 33.718,19.234 C33.720,19.191 33.721,19.147 33.721,19.105 C33.721,18.320 33.415,17.606 32.916,17.071 L32.916,14.144 C32.916,12.808 32.600,11.544 32.041,10.419 C33.703,10.021 35.653,9.259 37.162,7.797 C37.631,8.788 38.506,10.079 40.027,10.650 L40.027,14.655 L40.027,14.655 ZM36.710,20.617 L36.710,22.152 L34.763,24.155 L32.876,22.334 C32.876,22.326 32.877,22.318 32.877,22.310 L32.877,21.179 C32.877,21.179 32.877,21.179 32.877,21.178 L32.877,21.178 C33.022,21.029 33.152,20.865 33.263,20.688 C33.575,20.735 33.891,20.762 34.207,20.762 L35.380,20.762 C35.837,20.762 36.281,20.711 36.710,20.617 ZM32.206,19.105 C32.206,19.484 32.061,19.829 31.826,20.093 C31.685,20.152 31.566,20.251 31.483,20.378 C31.378,20.442 31.266,20.495 31.146,20.531 L31.146,17.678 C31.759,17.868 32.206,18.435 32.206,19.105 ZM42.471,12.769 C42.471,13.369 42.082,13.879 41.542,14.068 L41.542,11.469 C42.083,11.659 42.471,12.170 42.471,12.769 ZM28.061,6.425 C28.811,3.526 31.448,1.502 34.472,1.502 L35.087,1.502 C38.737,1.502 41.707,4.445 41.707,8.062 L41.707,9.956 C41.646,9.943 41.584,9.930 41.522,9.921 C41.456,9.647 41.239,9.426 40.953,9.362 C38.831,8.884 38.179,6.200 38.173,6.175 C38.107,5.887 37.877,5.664 37.585,5.606 C37.294,5.547 36.994,5.662 36.819,5.901 C35.398,7.848 33.029,8.697 31.201,9.068 C30.374,7.979 29.288,7.096 28.034,6.505 C28.044,6.479 28.053,6.452 28.061,6.425 ZM23.737,7.192 L24.385,7.192 L24.385,7.193 C28.253,7.193 31.400,10.311 31.400,14.144 L31.400,16.191 C31.312,16.171 31.222,16.153 31.131,16.140 C31.130,16.130 31.127,16.121 31.125,16.110 C31.122,16.098 31.119,16.086 31.115,16.073 C31.111,16.061 31.107,16.049 31.103,16.037 C31.099,16.026 31.095,16.016 31.091,16.006 C31.086,15.993 31.080,15.980 31.074,15.968 C31.070,15.959 31.065,15.949 31.061,15.940 C31.054,15.928 31.047,15.916 31.040,15.904 C31.035,15.895 31.030,15.886 31.024,15.877 C31.017,15.867 31.009,15.856 31.002,15.846 C30.995,15.836 30.988,15.827 30.980,15.818 C30.973,15.809 30.966,15.800 30.958,15.791 C30.949,15.782 30.940,15.772 30.931,15.763 C30.924,15.755 30.916,15.748 30.909,15.741 C30.898,15.731 30.888,15.722 30.878,15.713 C30.870,15.706 30.862,15.700 30.854,15.694 C30.843,15.686 30.831,15.677 30.820,15.669 C30.811,15.663 30.802,15.657 30.792,15.651 C30.781,15.645 30.770,15.637 30.758,15.631 C30.747,15.625 30.736,15.619 30.725,15.614 C30.714,15.608 30.704,15.604 30.693,15.599 C30.680,15.592 30.665,15.587 30.651,15.582 C30.642,15.579 30.634,15.575 30.625,15.573 C30.608,15.567 30.592,15.563 30.576,15.559 C30.569,15.557 30.563,15.555 30.556,15.554 C28.295,15.044 27.603,12.192 27.596,12.166 C27.531,11.878 27.301,11.655 27.009,11.596 C26.717,11.537 26.418,11.652 26.243,11.891 C23.609,15.500 17.854,15.535 17.767,15.535 C17.765,15.535 17.764,15.535 17.763,15.535 C17.737,15.535 17.711,15.536 17.685,15.539 C17.680,15.539 17.674,15.540 17.668,15.541 C17.649,15.543 17.629,15.546 17.610,15.550 C17.603,15.551 17.597,15.554 17.590,15.556 C17.572,15.559 17.555,15.563 17.538,15.568 C17.529,15.571 17.520,15.575 17.511,15.578 C17.497,15.583 17.482,15.588 17.468,15.593 C17.457,15.598 17.447,15.604 17.436,15.609 C17.425,15.614 17.413,15.620 17.402,15.625 C17.391,15.631 17.381,15.638 17.370,15.645 C17.360,15.651 17.350,15.656 17.340,15.663 C17.329,15.670 17.319,15.678 17.309,15.685 C17.300,15.692 17.291,15.698 17.282,15.706 C17.272,15.714 17.263,15.722 17.254,15.730 C17.245,15.738 17.236,15.746 17.228,15.754 C17.219,15.763 17.212,15.771 17.203,15.781 C17.195,15.789 17.187,15.798 17.179,15.807 C17.171,15.816 17.165,15.826 17.157,15.835 C17.150,15.845 17.142,15.855 17.135,15.864 C17.129,15.875 17.123,15.884 17.117,15.895 C17.110,15.905 17.103,15.916 17.097,15.926 C17.092,15.937 17.087,15.948 17.082,15.958 C17.076,15.970 17.070,15.980 17.065,15.992 C17.061,16.003 17.057,16.015 17.053,16.025 C17.048,16.037 17.044,16.049 17.040,16.061 C17.036,16.072 17.034,16.084 17.031,16.095 C17.027,16.108 17.024,16.120 17.021,16.133 C17.020,16.135 17.020,16.138 17.020,16.140 C16.919,16.154 16.819,16.174 16.722,16.198 L16.722,14.144 C16.722,10.311 19.869,7.192 23.737,7.192 ZM24.044,31.160 L22.013,29.200 C22.014,29.186 22.015,29.172 22.015,29.158 L22.015,27.966 C22.015,27.966 22.015,27.965 22.015,27.965 L22.015,27.324 C22.480,27.428 22.962,27.486 23.458,27.486 L24.693,27.486 C25.174,27.486 25.643,27.432 26.094,27.333 C26.108,27.332 26.122,27.332 26.135,27.331 L26.135,29.007 L24.044,31.160 ZM25.166,34.007 L24.771,35.048 L23.359,35.048 L22.913,33.994 L24.030,33.179 L25.166,34.007 ZM13.860,27.862 L12.573,27.862 L12.218,26.926 L13.249,26.174 L14.262,26.913 L13.860,27.862 ZM13.961,30.846 C13.523,31.066 12.901,31.440 12.283,32.018 C12.274,32.026 12.266,32.035 12.257,32.043 L12.693,29.364 L13.719,29.364 L13.961,30.846 ZM13.237,24.155 L11.290,22.152 L11.290,20.617 C11.718,20.711 12.163,20.762 12.620,20.762 L13.793,20.762 C14.156,20.762 14.519,20.730 14.875,20.668 C14.949,20.789 15.032,20.904 15.123,21.012 L15.123,21.177 C15.123,21.178 15.123,21.179 15.123,21.180 L15.123,22.310 C15.123,22.318 15.124,22.326 15.124,22.334 L13.237,24.155 ZM16.409,23.190 C16.585,23.021 16.659,22.787 16.632,22.563 L17.298,22.998 C17.370,23.227 17.456,23.450 17.553,23.667 L16.186,26.452 L14.389,25.141 L16.409,23.190 ZM15.945,19.105 C15.945,18.435 16.392,17.868 17.005,17.678 L17.005,20.531 C16.392,20.342 15.945,19.774 15.945,19.105 ZM15.518,27.829 L16.021,28.196 C16.152,28.291 16.310,28.341 16.470,28.341 C16.531,28.341 16.591,28.334 16.651,28.320 C16.870,28.266 17.053,28.119 17.151,27.919 L18.498,25.177 C19.048,25.832 19.729,26.376 20.500,26.772 L20.500,27.554 L18.070,29.142 C18.037,29.151 18.004,29.161 17.972,29.174 L15.397,30.238 L15.147,28.705 L15.518,27.829 ZM20.522,29.338 C20.460,29.588 20.529,29.864 20.729,30.057 L22.892,32.144 L20.920,33.582 L19.246,30.173 L20.522,29.338 ZM24.693,25.984 L23.458,25.984 C20.736,25.984 18.521,23.789 18.521,21.092 L18.521,17.005 C20.147,16.888 23.993,16.344 26.584,13.797 C27.071,14.846 27.998,16.241 29.630,16.843 L29.630,21.092 L29.630,21.092 C29.630,23.789 27.416,25.984 24.693,25.984 ZM6.457,14.068 C5.917,13.879 5.529,13.369 5.529,12.769 C5.529,12.170 5.917,11.660 6.457,11.469 L6.457,14.068 ZM7.235,9.343 C7.234,9.343 7.233,9.343 7.232,9.343 C7.229,9.343 7.226,9.343 7.224,9.343 C7.221,9.343 7.218,9.343 7.215,9.343 C6.857,9.343 6.557,9.589 6.478,9.921 C6.416,9.930 6.354,9.943 6.293,9.955 L6.293,8.062 C6.293,4.445 9.263,1.502 12.913,1.502 L13.528,1.502 C16.552,1.502 19.188,3.526 19.939,6.424 C19.951,6.470 19.967,6.512 19.986,6.553 C18.988,7.039 18.100,7.713 17.367,8.528 C16.494,7.626 16.190,6.368 16.187,6.356 C16.121,6.068 15.891,5.845 15.599,5.786 C15.308,5.727 15.008,5.842 14.833,6.082 C12.476,9.311 7.311,9.343 7.235,9.343 C7.235,9.343 7.235,9.343 7.235,9.343 ZM7.973,14.655 L7.973,10.813 C9.464,10.700 12.851,10.198 15.180,7.968 C15.452,8.533 15.862,9.192 16.454,9.745 C15.663,11.028 15.206,12.534 15.206,14.144 L15.206,17.103 C14.723,17.633 14.429,18.336 14.429,19.104 C14.429,19.142 14.431,19.178 14.432,19.214 C14.221,19.243 14.007,19.260 13.792,19.260 L12.620,19.260 C10.058,19.260 7.973,17.194 7.973,14.655 ZM9.791,22.612 C9.820,22.744 9.884,22.871 9.986,22.976 L12.098,25.148 L10.311,26.452 L8.758,23.287 L9.791,22.612 ZM10.406,33.983 L5.938,33.983 L5.938,29.961 C5.938,29.546 5.599,29.210 5.180,29.210 C4.762,29.210 4.422,29.546 4.422,29.961 L4.422,33.983 L1.516,33.983 L1.516,30.169 C1.516,26.224 4.656,25.098 4.786,25.054 C4.803,25.048 4.820,25.042 4.837,25.035 L7.409,23.973 L9.346,27.919 C9.445,28.119 9.628,28.266 9.846,28.320 C9.906,28.334 9.967,28.341 10.028,28.341 C10.188,28.341 10.346,28.291 10.477,28.196 L10.949,27.851 L11.267,28.690 L10.406,33.983 ZM21.159,41.498 L19.812,41.498 L16.226,41.498 L16.226,41.498 L16.226,37.219 C16.226,36.805 15.886,36.469 15.468,36.469 C15.049,36.469 14.710,36.805 14.710,37.219 L14.710,41.498 L11.566,41.498 L11.566,37.439 C11.566,33.252 14.901,32.058 15.040,32.011 C15.057,32.005 15.073,31.999 15.090,31.992 L17.887,30.837 L19.955,35.050 C20.053,35.251 20.237,35.398 20.455,35.451 C20.515,35.465 20.576,35.473 20.636,35.473 C20.796,35.473 20.954,35.423 21.086,35.326 L21.657,34.910 L22.072,35.892 L21.159,41.498 ZM22.695,41.498 L23.500,36.550 L24.651,36.550 L25.456,41.498 L22.695,41.498 ZM27.140,33.582 L26.543,33.147 C26.542,33.145 26.540,33.144 26.538,33.143 L25.182,32.154 L27.439,29.831 C27.556,29.711 27.624,29.562 27.644,29.407 L28.814,30.173 L27.140,33.582 ZM32.603,30.238 L30.060,29.188 L27.654,27.614 C27.653,27.614 27.652,27.613 27.651,27.613 L27.651,26.772 C28.378,26.399 29.023,25.894 29.557,25.287 L30.849,27.919 C30.947,28.119 31.130,28.266 31.349,28.320 C31.409,28.334 31.469,28.341 31.530,28.341 C31.690,28.341 31.848,28.291 31.979,28.196 L32.482,27.829 L32.853,28.705 L32.603,30.238 ZM31.813,26.452 L30.525,23.827 C30.671,23.522 30.792,23.204 30.889,22.876 L31.368,22.563 C31.341,22.787 31.415,23.021 31.591,23.190 L33.611,25.141 L31.813,26.452 ZM35.717,32.018 C35.099,31.440 34.477,31.066 34.039,30.846 L34.281,29.364 L35.307,29.364 L35.743,32.043 C35.734,32.035 35.726,32.026 35.717,32.018 ZM35.427,27.862 L34.139,27.862 L33.738,26.912 L34.751,26.174 L35.782,26.926 L35.427,27.862 ZM35.902,25.148 L38.014,22.976 C38.116,22.871 38.180,22.744 38.209,22.611 L39.242,23.287 L37.688,26.452 L35.902,25.148 ZM43.577,33.983 L43.577,29.961 C43.577,29.546 43.238,29.210 42.819,29.210 C42.401,29.210 42.062,29.546 42.062,29.961 L42.062,33.983 L37.594,33.983 L36.733,28.690 L37.050,27.851 L37.523,28.196 C37.654,28.291 37.812,28.341 37.972,28.341 C38.032,28.341 38.093,28.334 38.153,28.320 C38.372,28.267 38.555,28.119 38.653,27.919 L40.590,23.973 L43.163,25.035 C43.180,25.042 43.196,25.048 43.213,25.054 C43.246,25.065 46.484,26.189 46.484,30.169 L46.484,33.983 L43.577,33.983 L43.577,33.983 Z"/>
</svg>