<svg xmlns="http://www.w3.org/2000/svg" xmlns:xlink="http://www.w3.org/1999/xlink" width="48px" height="48px">
  <path fill-rule="evenodd" fill="rgb(255, 255, 255)" d="M46.400,29.600 L46.400,28.000 L48.000,28.000 L48.000,29.600 L46.400,29.600 ZM42.966,25.035 L41.834,26.166 L38.634,22.965 C38.322,22.653 38.322,22.147 38.634,21.834 L41.834,18.635 L42.966,19.766 L41.131,21.600 L48.000,21.600 L48.000,23.200 L41.131,23.200 L42.966,25.035 ZM46.400,6.400 L48.000,6.400 L48.000,8.000 L46.400,8.000 L46.400,6.400 ZM43.200,6.400 L44.800,6.400 L44.800,8.000 L43.200,8.000 L43.200,6.400 ZM34.166,9.834 L33.034,10.966 L29.834,7.765 C29.522,7.453 29.522,6.947 29.834,6.634 L33.034,3.435 L34.166,4.566 L32.331,6.400 L41.600,6.400 L41.600,8.000 L32.331,8.000 L34.166,9.834 ZM37.834,18.965 L34.634,15.765 C34.322,15.453 34.322,14.947 34.634,14.635 L37.834,11.434 L38.966,12.566 L37.131,14.400 L46.400,14.400 L46.400,16.000 L37.131,16.000 L38.966,17.834 L37.834,18.965 ZM30.400,15.200 L30.400,20.000 L36.000,20.000 C36.442,20.000 36.800,20.358 36.800,20.800 L36.800,28.000 L38.400,28.000 L38.400,29.600 L36.800,29.600 L36.800,29.919 C36.800,32.812 36.020,35.637 34.586,38.255 L37.600,41.269 L37.600,38.400 L39.200,38.400 L39.200,43.200 C39.200,43.641 38.842,44.000 38.400,44.000 L33.600,44.000 L33.600,42.400 L36.469,42.400 L33.735,39.666 C31.598,42.902 28.414,45.752 24.377,47.906 C24.258,47.969 24.130,48.000 24.000,48.000 C23.870,48.000 23.742,47.969 23.624,47.906 C21.134,46.578 18.970,44.984 17.172,43.200 L4.000,43.200 C1.794,43.200 -0.000,41.405 -0.000,39.200 L-0.000,36.800 L-0.000,32.800 L-0.000,28.800 L-0.000,24.800 L-0.000,20.800 L-0.000,15.200 C-0.000,14.758 0.358,14.400 0.800,14.400 L3.200,14.400 L3.200,12.000 C3.200,5.383 8.583,-0.000 15.200,-0.000 C21.817,-0.000 27.200,5.383 27.200,12.000 L27.200,14.400 L29.600,14.400 C30.042,14.400 30.400,14.758 30.400,15.200 ZM35.200,29.919 L35.200,29.599 L33.558,29.599 C33.410,31.731 32.874,33.784 32.013,35.681 L33.406,37.074 C34.573,34.807 35.200,32.386 35.200,29.919 ZM24.000,46.290 C27.734,44.228 30.652,41.536 32.578,38.509 L31.248,37.179 C29.651,39.961 27.304,42.309 24.383,43.902 C24.264,43.967 24.132,44.000 24.000,44.000 C23.868,44.000 23.736,43.967 23.617,43.902 C17.932,40.801 14.400,34.852 14.400,28.376 L14.400,24.000 C14.400,23.558 14.758,23.200 15.200,23.200 L32.800,23.200 C33.242,23.200 33.600,23.558 33.600,24.000 L33.600,28.000 L35.200,28.000 L35.200,21.600 L12.800,21.600 L12.800,29.919 C12.800,36.318 16.978,42.411 24.000,46.290 ZM23.434,29.366 C23.206,29.137 23.137,28.793 23.261,28.494 C23.384,28.196 23.677,28.000 24.000,28.000 L32.000,28.000 L32.000,24.800 L16.000,24.800 L16.000,28.377 C16.000,34.120 19.054,39.408 24.000,42.283 C26.610,40.766 28.685,38.573 30.070,36.002 L23.434,29.366 ZM30.801,34.469 C31.429,32.934 31.821,31.294 31.950,29.600 L25.931,29.600 L30.801,34.469 ZM1.600,36.000 L6.400,36.000 L6.400,33.600 L1.600,33.600 L1.600,36.000 ZM1.600,32.000 L6.400,32.000 L6.400,29.600 L1.600,29.600 L1.600,32.000 ZM1.600,28.000 L6.400,28.000 L6.400,25.600 L1.600,25.600 L1.600,28.000 ZM1.600,24.000 L6.400,24.000 L6.400,21.600 L1.600,21.600 L1.600,24.000 ZM25.600,12.000 C25.600,6.266 20.934,1.600 15.200,1.600 C9.466,1.600 4.800,6.266 4.800,12.000 L4.800,14.400 L7.200,14.400 L7.200,12.000 C7.200,7.589 10.789,4.000 15.200,4.000 C19.611,4.000 23.200,7.589 23.200,12.000 L23.200,14.400 L25.600,14.400 L25.600,12.000 ZM8.800,12.000 L8.800,14.400 L21.600,14.400 L21.600,12.000 C21.600,8.471 18.729,5.600 15.200,5.600 C11.671,5.600 8.800,8.471 8.800,12.000 ZM28.800,16.000 L1.600,16.000 L1.600,20.000 L7.200,20.000 C7.642,20.000 8.000,20.358 8.000,20.800 L8.000,24.800 L8.000,28.800 L8.000,32.800 L8.000,36.800 C8.000,37.242 7.642,37.600 7.200,37.600 L1.600,37.600 L1.600,39.200 C1.600,40.523 2.677,41.600 4.000,41.600 L15.709,41.600 C12.812,38.134 11.200,34.096 11.200,29.919 L11.200,20.800 C11.200,20.358 11.558,20.000 12.000,20.000 L28.800,20.000 L28.800,16.000 ZM41.600,29.600 L40.000,29.600 L40.000,28.000 L41.600,28.000 L41.600,29.600 ZM44.800,29.600 L43.200,29.600 L43.200,28.000 L44.800,28.000 L44.800,29.600 Z"/>
</svg>