<svg xmlns="http://www.w3.org/2000/svg" xmlns:xlink="http://www.w3.org/1999/xlink" width="48px" height="48px">
  <path fill-rule="evenodd" fill="rgb(255, 255, 255)" d="M46.948,21.711 C47.440,22.367 48.000,23.109 48.000,24.000 C48.000,24.891 47.440,25.634 46.948,26.288 C46.620,26.723 46.281,27.173 46.227,27.521 L44.744,27.288 C44.858,26.569 45.311,25.967 45.749,25.386 C46.118,24.895 46.500,24.390 46.500,24.000 C46.500,23.611 46.118,23.105 45.750,22.614 C45.312,22.032 44.858,21.431 44.745,20.712 C44.630,19.973 44.878,19.248 45.120,18.547 C45.316,17.980 45.518,17.393 45.405,17.045 C45.287,16.682 44.770,16.322 44.271,15.972 C43.671,15.553 43.051,15.119 42.717,14.465 C42.380,13.803 42.392,13.041 42.403,12.303 C42.413,11.699 42.424,11.074 42.205,10.773 C41.983,10.470 41.384,10.287 40.805,10.110 C40.101,9.895 39.373,9.673 38.851,9.151 C38.328,8.628 38.106,7.900 37.892,7.196 C37.714,6.616 37.532,6.016 37.228,5.795 C36.927,5.576 36.302,5.588 35.698,5.596 C34.963,5.611 34.197,5.621 33.535,5.284 C32.882,4.950 32.448,4.329 32.029,3.729 C31.679,3.229 31.318,2.713 30.956,2.596 C30.607,2.482 30.021,2.685 29.453,2.881 C28.752,3.122 28.026,3.369 27.288,3.256 C26.569,3.142 25.967,2.690 25.385,2.251 C24.896,1.882 24.389,1.500 24.000,1.500 C23.611,1.500 23.104,1.882 22.615,2.251 C22.033,2.690 21.431,3.143 20.713,3.256 C19.973,3.371 19.250,3.122 18.548,2.881 C17.980,2.686 17.393,2.482 17.046,2.596 C16.684,2.713 16.322,3.229 15.974,3.729 C15.553,4.330 15.120,4.950 14.466,5.284 C13.804,5.621 13.042,5.609 12.304,5.596 C11.700,5.586 11.075,5.576 10.775,5.795 C10.470,6.016 10.288,6.616 10.111,7.196 C9.896,7.900 9.674,8.628 9.151,9.150 C8.629,9.673 7.900,9.895 7.197,10.110 C6.616,10.287 6.017,10.470 5.796,10.773 C5.578,11.074 5.587,11.699 5.597,12.303 C5.610,13.041 5.622,13.803 5.285,14.465 C4.951,15.119 4.330,15.553 3.730,15.972 C3.230,16.322 2.713,16.682 2.596,17.044 C2.482,17.391 2.685,17.980 2.881,18.547 C3.122,19.248 3.372,19.973 3.256,20.712 C3.142,21.432 2.689,22.032 2.251,22.615 C1.882,23.105 1.500,23.611 1.500,24.000 C1.500,24.390 1.882,24.895 2.251,25.385 C2.689,25.967 3.143,26.569 3.256,27.288 L1.774,27.521 C1.719,27.173 1.381,26.722 1.053,26.288 C0.560,25.634 -0.000,24.891 -0.000,24.000 C-0.000,23.109 0.560,22.367 1.054,21.711 C1.381,21.278 1.720,20.828 1.775,20.480 C1.833,20.108 1.645,19.564 1.463,19.037 C1.200,18.272 0.901,17.407 1.169,16.581 C1.443,15.740 2.201,15.210 2.871,14.742 C3.320,14.428 3.785,14.103 3.949,13.782 C4.116,13.453 4.107,12.881 4.098,12.327 C4.085,11.516 4.070,10.596 4.583,9.890 C5.100,9.181 5.981,8.911 6.759,8.675 C7.287,8.513 7.833,8.347 8.091,8.088 C8.348,7.831 8.515,7.285 8.676,6.757 C8.913,5.980 9.182,5.097 9.892,4.582 C10.598,4.067 11.517,4.080 12.329,4.097 C12.881,4.105 13.455,4.115 13.784,3.947 C14.105,3.784 14.429,3.319 14.743,2.869 C15.212,2.200 15.742,1.441 16.582,1.168 C17.407,0.901 18.272,1.199 19.036,1.462 C19.564,1.644 20.110,1.833 20.480,1.774 C20.828,1.719 21.277,1.381 21.712,1.053 C22.366,0.560 23.109,-0.000 24.000,-0.000 C24.891,-0.000 25.634,0.560 26.287,1.053 C26.723,1.380 27.172,1.719 27.520,1.774 C27.890,1.830 28.437,1.644 28.964,1.462 C29.728,1.200 30.595,0.903 31.420,1.170 C32.261,1.443 32.792,2.201 33.259,2.871 C33.573,3.321 33.898,3.786 34.219,3.949 C34.546,4.118 35.120,4.109 35.674,4.099 C36.484,4.084 37.404,4.070 38.110,4.584 C38.820,5.100 39.089,5.982 39.326,6.760 C39.487,7.287 39.653,7.833 39.911,8.091 C40.168,8.348 40.714,8.515 41.242,8.676 C42.020,8.913 42.902,9.182 43.418,9.892 C43.931,10.598 43.916,11.517 43.903,12.328 C43.894,12.882 43.884,13.455 44.052,13.784 C44.216,14.104 44.681,14.429 45.131,14.744 C45.800,15.211 46.559,15.742 46.832,16.582 C47.099,17.407 46.802,18.273 46.538,19.037 C46.356,19.563 46.168,20.108 46.227,20.480 C46.281,20.828 46.620,21.278 46.948,21.711 ZM3.750,27.750 C4.990,27.750 6.000,28.759 6.000,30.000 L6.000,30.750 L4.500,30.750 L4.500,30.000 C4.500,29.586 4.163,29.250 3.750,29.250 C3.337,29.250 3.000,29.586 3.000,30.000 L3.000,34.500 C3.000,34.914 3.337,35.250 3.750,35.250 C4.163,35.250 4.500,34.914 4.500,34.500 L4.500,33.750 L3.750,33.750 L3.750,32.250 L5.250,32.250 C5.664,32.250 6.000,32.585 6.000,33.000 L6.000,34.500 C6.000,35.740 4.990,36.750 3.750,36.750 C2.509,36.750 1.500,35.740 1.500,34.500 L1.500,30.000 C1.500,28.759 2.509,27.750 3.750,27.750 ZM42.000,35.250 L42.000,36.750 L39.000,36.750 C38.585,36.750 38.250,36.415 38.250,36.000 L38.250,28.500 C38.250,28.085 38.585,27.750 39.000,27.750 L42.000,27.750 L42.000,29.250 L39.750,29.250 L39.750,31.500 L42.000,31.500 L42.000,33.000 L39.750,33.000 L39.750,35.250 L42.000,35.250 ZM15.750,17.250 L15.000,17.250 L15.000,15.750 L16.500,15.750 C16.914,15.750 17.250,16.086 17.250,16.500 L17.250,24.750 L15.750,24.750 L15.750,17.250 ZM12.000,30.000 C12.000,28.759 13.010,27.750 14.250,27.750 C15.491,27.750 16.500,28.759 16.500,30.000 L16.500,36.750 L15.000,36.750 L15.000,35.250 L13.500,35.250 L13.500,36.750 L12.000,36.750 L12.000,30.000 ZM13.500,33.750 L15.000,33.750 L15.000,30.000 C15.000,29.586 14.663,29.250 14.250,29.250 C13.837,29.250 13.500,29.586 13.500,30.000 L13.500,33.750 ZM12.550,38.844 L13.468,37.657 C16.511,40.007 20.153,41.250 24.000,41.250 C27.848,41.250 31.489,40.007 34.533,37.657 L35.450,38.844 C32.141,41.399 28.182,42.750 24.000,42.750 C19.818,42.750 15.860,41.399 12.550,38.844 ZM36.750,23.250 L35.250,23.250 L35.250,21.750 L36.750,21.750 L36.750,23.250 ZM35.920,18.335 L32.920,24.335 L31.578,23.664 L34.578,17.664 L35.920,18.335 ZM32.250,20.250 L30.750,20.250 L30.750,18.750 L32.250,18.750 L32.250,20.250 ZM30.750,27.750 L32.250,27.750 L32.250,36.000 C32.250,36.360 31.995,36.669 31.642,36.737 C31.595,36.746 31.546,36.750 31.499,36.750 C31.199,36.750 30.919,36.568 30.803,36.278 L29.250,32.394 L29.250,36.750 L27.750,36.750 L27.750,28.500 C27.750,28.141 28.005,27.831 28.358,27.763 C28.705,27.700 29.063,27.887 29.197,28.221 L30.750,32.106 L30.750,27.750 ZM26.625,15.750 C28.072,15.750 29.250,16.927 29.250,18.375 L29.250,22.125 C29.250,23.572 28.072,24.750 26.625,24.750 C25.177,24.750 24.000,23.572 24.000,22.125 L24.000,18.375 C24.000,16.927 25.177,15.750 26.625,15.750 ZM25.500,22.125 C25.500,22.745 26.005,23.250 26.625,23.250 C27.245,23.250 27.750,22.745 27.750,22.125 L27.750,18.375 C27.750,17.754 27.245,17.250 26.625,17.250 C26.005,17.250 25.500,17.754 25.500,18.375 L25.500,22.125 ZM27.000,30.000 L27.000,36.750 L25.500,36.750 L25.500,35.250 L24.000,35.250 L24.000,36.750 L22.500,36.750 L22.500,30.000 C22.500,28.759 23.510,27.750 24.750,27.750 C25.990,27.750 27.000,28.759 27.000,30.000 ZM24.000,30.000 L24.000,33.750 L25.500,33.750 L25.500,30.000 C25.500,29.586 25.164,29.250 24.750,29.250 C24.337,29.250 24.000,29.586 24.000,30.000 ZM20.625,15.750 C22.072,15.750 23.250,16.927 23.250,18.375 L23.250,22.125 C23.250,23.572 22.072,24.750 20.625,24.750 C19.178,24.750 18.000,23.572 18.000,22.125 L18.000,18.375 C18.000,16.927 19.178,15.750 20.625,15.750 ZM19.500,22.125 C19.500,22.745 20.005,23.250 20.625,23.250 C21.245,23.250 21.750,22.745 21.750,22.125 L21.750,18.375 C21.750,17.754 21.245,17.250 20.625,17.250 C20.005,17.250 19.500,17.754 19.500,18.375 L19.500,22.125 ZM17.250,36.750 L17.250,32.252 C17.250,32.251 17.250,32.249 17.250,32.247 L17.250,28.500 C17.250,28.085 17.586,27.750 18.000,27.750 L19.125,27.750 C20.572,27.750 21.750,28.928 21.750,30.375 C21.750,31.683 20.788,32.770 19.535,32.968 L21.360,35.250 L21.750,35.250 L21.750,36.750 L21.000,36.750 C20.772,36.750 20.557,36.647 20.414,36.469 L18.750,34.388 L18.750,36.750 L17.250,36.750 ZM19.125,31.500 C19.745,31.500 20.250,30.995 20.250,30.375 C20.250,29.755 19.745,29.250 19.125,29.250 L18.750,29.250 L18.750,31.500 L19.125,31.500 ZM34.500,36.750 L34.500,29.250 L33.000,29.250 L33.000,27.750 L37.500,27.750 L37.500,29.250 L36.000,29.250 L36.000,36.750 L34.500,36.750 ZM5.250,24.000 C5.250,13.661 13.661,5.250 24.000,5.250 C34.339,5.250 42.750,13.661 42.750,24.000 C42.750,24.755 42.700,25.544 42.598,26.343 L41.111,26.157 C41.203,25.419 41.250,24.693 41.250,24.000 C41.250,14.488 33.512,6.750 24.000,6.750 C14.488,6.750 6.750,14.488 6.750,24.000 C6.750,24.693 6.797,25.419 6.889,26.157 L5.401,26.343 C5.301,25.544 5.250,24.755 5.250,24.000 ZM11.250,27.750 L11.250,34.500 C11.250,35.740 10.240,36.750 9.000,36.750 C7.759,36.750 6.750,35.740 6.750,34.500 L6.750,27.750 L8.250,27.750 L8.250,34.500 C8.250,34.914 8.587,35.250 9.000,35.250 C9.413,35.250 9.750,34.914 9.750,34.500 L9.750,27.750 L11.250,27.750 ZM7.195,37.889 C7.900,38.105 8.627,38.326 9.150,38.850 C9.673,39.372 9.895,40.100 10.110,40.803 C10.287,41.383 10.470,41.982 10.774,42.204 C11.074,42.423 11.699,42.410 12.304,42.403 C13.040,42.390 13.804,42.378 14.465,42.715 C15.118,43.049 15.552,43.669 15.972,44.271 C16.321,44.770 16.682,45.287 17.045,45.404 C17.393,45.518 17.980,45.315 18.547,45.119 C19.248,44.878 19.975,44.633 20.712,44.744 C21.430,44.858 22.033,45.311 22.614,45.749 C23.104,46.118 23.611,46.500 24.000,46.500 C24.389,46.500 24.896,46.118 25.385,45.749 C25.967,45.311 26.568,44.857 27.287,44.744 C28.026,44.633 28.751,44.878 29.452,45.119 C30.020,45.316 30.607,45.518 30.955,45.404 C31.318,45.286 31.679,44.770 32.028,44.271 C32.447,43.671 32.881,43.050 33.534,42.716 C34.197,42.379 34.959,42.391 35.697,42.403 C36.297,42.412 36.926,42.422 37.225,42.204 C37.530,41.983 37.713,41.383 37.889,40.804 C38.104,40.100 38.327,39.372 38.849,38.850 C39.371,38.327 40.100,38.105 40.803,37.890 C41.383,37.713 41.983,37.531 42.203,37.228 L43.415,38.110 C42.899,38.819 42.017,39.089 41.239,39.326 C40.712,39.487 40.167,39.653 39.909,39.911 C39.651,40.168 39.485,40.715 39.323,41.243 C39.086,42.021 38.817,42.901 38.108,43.417 C37.401,43.931 36.478,43.915 35.671,43.903 C35.117,43.892 34.545,43.883 34.216,44.052 C33.897,44.215 33.572,44.680 33.257,45.130 C32.789,45.800 32.259,46.559 31.418,46.832 C30.595,47.100 29.729,46.802 28.964,46.537 C28.437,46.356 27.887,46.162 27.521,46.227 C27.172,46.281 26.723,46.620 26.288,46.948 C25.634,47.440 24.891,48.000 24.000,48.000 C23.109,48.000 22.366,47.440 21.712,46.947 C21.277,46.619 20.828,46.280 20.480,46.227 C20.110,46.162 19.564,46.356 19.036,46.537 C18.272,46.801 17.406,47.097 16.582,46.830 C15.741,46.557 15.211,45.798 14.743,45.129 C14.428,44.679 14.104,44.214 13.784,44.050 C13.455,43.883 12.881,43.895 12.329,43.901 C11.516,43.914 10.597,43.931 9.891,43.416 C9.182,42.900 8.912,42.019 8.675,41.241 C8.514,40.713 8.347,40.168 8.090,39.910 C7.832,39.652 7.286,39.485 6.758,39.324 C5.980,39.087 5.099,38.818 4.582,38.109 L5.795,37.225 C6.016,37.530 6.616,37.713 7.195,37.889 ZM42.750,36.000 L42.750,28.500 C42.750,28.085 43.085,27.750 43.500,27.750 L46.500,27.750 L46.500,29.250 L44.250,29.250 L44.250,31.500 L46.500,31.500 L46.500,33.000 L44.250,33.000 L44.250,35.250 L46.500,35.250 L46.500,36.750 L43.500,36.750 C43.085,36.750 42.750,36.415 42.750,36.000 Z"/>
</svg>