<svg xmlns="http://www.w3.org/2000/svg" xmlns:xlink="http://www.w3.org/1999/xlink" width="41px" height="46px">
  <path fill-rule="evenodd" fill="rgb(255, 255, 255)" d="M35.492,34.078 C31.888,39.405 26.821,43.505 20.837,45.934 C20.729,45.978 20.615,46.000 20.500,46.000 C20.385,46.000 20.271,45.978 20.162,45.934 C14.179,43.505 9.112,39.405 5.508,34.078 C1.905,28.751 0.000,22.544 0.000,16.127 L0.000,0.885 C0.000,0.396 0.399,-0.000 0.891,-0.000 L40.109,-0.000 C40.601,-0.000 41.000,0.396 41.000,0.885 L41.000,16.127 C41.000,22.543 39.095,28.751 35.492,34.078 ZM39.217,1.769 L1.783,1.769 L1.783,16.127 C1.783,28.418 9.117,39.381 20.500,44.157 C31.883,39.381 39.217,28.418 39.217,16.127 L39.217,1.769 ZM20.880,42.051 C20.760,42.107 20.630,42.136 20.500,42.136 C20.370,42.136 20.240,42.107 20.120,42.051 C15.408,39.847 11.378,36.407 8.468,32.106 C5.261,27.363 3.565,21.838 3.565,16.127 L3.565,4.423 C3.565,3.934 3.964,3.539 4.457,3.539 L36.543,3.539 C37.036,3.539 37.435,3.934 37.435,4.423 L37.435,16.127 C37.435,21.838 35.739,27.363 32.532,32.106 C29.622,36.407 25.592,39.847 20.880,42.051 ZM35.652,16.127 L35.652,16.127 L35.652,5.308 L5.348,5.308 L5.348,7.961 L9.804,7.961 C10.297,7.961 10.696,8.358 10.696,8.847 C10.696,9.334 10.297,9.731 9.804,9.731 L5.348,9.731 L5.348,16.127 C5.348,21.486 6.939,26.670 9.948,31.119 C12.600,35.040 16.242,38.197 20.500,40.269 C24.758,38.197 28.400,35.040 31.052,31.119 C34.061,26.670 35.652,21.486 35.652,16.127 ZM19.240,30.300 C19.012,30.300 18.784,30.214 18.609,30.041 L11.046,22.535 C10.879,22.369 10.785,22.144 10.785,21.909 C10.785,21.674 10.879,21.450 11.046,21.284 L14.218,18.135 C14.567,17.790 15.131,17.790 15.479,18.135 L19.240,21.868 L25.521,15.633 C25.869,15.288 26.433,15.288 26.781,15.633 L29.954,18.782 C30.121,18.948 30.215,19.173 30.215,19.408 C30.215,19.642 30.121,19.867 29.954,20.033 L19.870,30.041 C19.696,30.214 19.468,30.300 19.240,30.300 ZM26.151,17.510 L19.870,23.744 C19.522,24.089 18.957,24.089 18.609,23.744 L14.849,20.012 L12.937,21.909 L19.240,28.164 L28.063,19.407 L26.151,17.510 ZM13.301,9.185 C13.279,9.238 13.251,9.289 13.219,9.337 C13.187,9.386 13.149,9.431 13.108,9.472 C13.067,9.513 13.022,9.550 12.973,9.582 C12.925,9.613 12.873,9.641 12.819,9.663 C12.765,9.685 12.709,9.702 12.652,9.714 C12.595,9.726 12.536,9.731 12.478,9.731 C12.420,9.731 12.361,9.726 12.304,9.714 C12.247,9.702 12.191,9.685 12.138,9.663 C12.083,9.641 12.032,9.613 11.984,9.582 C11.935,9.549 11.889,9.513 11.848,9.472 C11.807,9.431 11.770,9.386 11.738,9.337 C11.705,9.289 11.678,9.238 11.656,9.185 C11.633,9.131 11.615,9.075 11.605,9.019 C11.593,8.962 11.587,8.904 11.587,8.847 C11.587,8.788 11.593,8.731 11.605,8.674 C11.615,8.617 11.633,8.561 11.656,8.508 C11.678,8.455 11.705,8.403 11.738,8.355 C11.770,8.306 11.807,8.261 11.848,8.221 C11.889,8.180 11.935,8.143 11.984,8.111 C12.032,8.079 12.083,8.052 12.138,8.030 C12.191,8.007 12.247,7.990 12.304,7.979 C12.419,7.956 12.537,7.956 12.652,7.979 C12.709,7.990 12.765,8.007 12.819,8.030 C12.873,8.052 12.925,8.079 12.973,8.111 C13.022,8.143 13.067,8.180 13.108,8.221 C13.149,8.261 13.187,8.306 13.219,8.355 C13.251,8.403 13.279,8.455 13.301,8.508 C13.323,8.561 13.341,8.617 13.352,8.674 C13.363,8.731 13.370,8.788 13.370,8.847 C13.370,8.904 13.363,8.962 13.352,9.019 C13.341,9.075 13.323,9.131 13.301,9.185 Z"/>
</svg>