<svg xmlns="http://www.w3.org/2000/svg" xmlns:xlink="http://www.w3.org/1999/xlink" width="48px" height="48px">
  <path fill-rule="evenodd" fill="rgb(255, 255, 255)" d="M47.451,47.960 C47.367,47.987 47.282,48.000 47.198,48.000 C46.863,48.000 46.550,47.788 46.439,47.453 L45.639,45.052 C45.359,44.214 44.919,42.914 43.498,41.842 L37.447,40.040 C36.991,40.013 36.509,39.999 35.998,39.999 C35.556,39.999 35.198,39.641 35.198,39.199 C35.198,38.757 35.556,38.399 35.998,38.399 C44.070,38.399 46.202,41.684 47.157,44.547 L47.957,46.947 C48.097,47.365 47.870,47.819 47.451,47.960 ZM39.063,40.210 L42.096,41.034 C41.295,40.678 40.299,40.390 39.063,40.210 ZM39.822,10.093 L36.798,13.876 L36.798,16.795 C36.798,17.237 36.440,17.595 35.998,17.595 L11.998,17.595 C11.557,17.595 11.198,17.237 11.198,16.795 L11.198,13.861 L8.359,10.074 C8.328,10.033 8.301,9.989 8.278,9.942 C8.226,9.833 7.771,8.840 8.147,7.847 C8.302,7.440 8.661,6.880 9.491,6.535 L21.241,0.665 C23.027,-0.229 24.906,-0.221 26.752,0.688 L38.746,6.473 C39.340,6.725 39.792,7.169 40.019,7.744 C40.418,8.757 39.981,9.802 39.930,9.919 C39.902,9.981 39.866,10.040 39.822,10.093 ZM38.085,7.930 L26.051,2.126 C24.641,1.431 23.297,1.425 21.957,2.096 L10.156,7.989 C9.741,8.163 9.668,8.349 9.645,8.410 C9.543,8.670 9.634,9.025 9.698,9.192 L12.638,13.115 C12.742,13.254 12.798,13.422 12.798,13.595 L12.798,15.995 L35.198,15.995 L35.198,13.595 C35.198,13.413 35.260,13.237 35.374,13.095 L38.499,9.188 C38.622,8.853 38.749,8.213 38.085,7.930 ZM32.797,14.395 C32.643,14.395 32.486,14.350 32.347,14.256 C32.332,14.246 30.040,12.795 23.998,12.795 C17.957,12.795 15.665,14.246 15.642,14.261 C15.275,14.500 14.780,14.402 14.536,14.037 C14.293,13.671 14.385,13.180 14.748,12.934 C14.853,12.862 17.378,11.194 23.998,11.194 C30.619,11.194 33.144,12.862 33.248,12.934 C33.614,13.182 33.708,13.680 33.459,14.045 C33.305,14.273 33.053,14.395 32.797,14.395 ZM13.598,39.199 C13.598,39.641 13.241,39.999 12.798,39.999 C11.942,39.999 11.157,40.040 10.430,40.111 L4.102,42.432 C3.174,43.255 2.647,44.185 2.358,45.052 L1.558,47.453 C1.447,47.788 1.134,48.000 0.799,48.000 C0.715,48.000 0.630,47.987 0.546,47.960 C0.127,47.819 -0.100,47.365 0.040,46.947 L0.840,44.547 C1.607,42.250 4.178,38.399 12.798,38.399 C13.241,38.399 13.598,38.757 13.598,39.199 ZM5.450,41.499 L8.814,40.347 C7.435,40.612 6.331,41.013 5.450,41.499 ZM14.841,38.483 L18.041,36.882 C18.328,36.739 18.674,36.781 18.919,36.991 L23.998,41.345 L29.078,36.991 C29.323,36.782 29.669,36.739 29.956,36.882 L33.156,38.483 C33.396,38.604 33.559,38.836 33.592,39.102 C33.625,39.367 33.523,39.632 33.318,39.807 L27.719,44.607 C27.568,44.736 27.383,44.799 27.199,44.799 C26.973,44.799 26.749,44.704 26.591,44.520 C26.303,44.184 26.342,43.679 26.678,43.392 L31.363,39.376 L29.715,38.551 L24.798,42.768 L24.798,47.200 C24.798,47.642 24.440,48.000 23.998,48.000 C23.556,48.000 23.198,47.642 23.198,47.200 L23.198,42.768 L18.281,38.551 L16.633,39.376 L21.319,43.392 C21.655,43.679 21.693,44.184 21.406,44.520 C21.248,44.704 21.024,44.799 20.798,44.799 C20.613,44.799 20.429,44.736 20.278,44.607 L14.678,39.807 C14.474,39.632 14.372,39.367 14.405,39.102 C14.438,38.836 14.601,38.604 14.841,38.483 ZM26.398,20.796 L29.598,20.796 C30.040,20.796 30.398,21.154 30.398,21.596 C30.398,22.038 30.040,22.396 29.598,22.396 L28.798,22.396 C28.798,22.838 28.440,23.196 27.998,23.196 C27.556,23.196 27.198,22.838 27.198,22.396 L26.398,22.396 C25.956,22.396 25.598,22.038 25.598,21.596 C25.598,21.154 25.956,20.796 26.398,20.796 ZM20.798,22.396 C20.798,22.838 20.441,23.196 19.998,23.196 C19.557,23.196 19.198,22.838 19.198,22.396 L18.398,22.396 C17.957,22.396 17.598,22.038 17.598,21.596 C17.598,21.154 17.957,20.796 18.398,20.796 L21.598,20.796 C22.041,20.796 22.398,21.154 22.398,21.596 C22.398,22.038 22.041,22.396 21.598,22.396 L20.798,22.396 ZM23.641,28.481 C23.865,28.369 24.131,28.369 24.356,28.481 C25.756,29.181 27.186,27.997 27.200,27.997 C27.641,28.000 27.998,28.358 27.997,28.799 C27.996,29.240 27.640,29.598 27.198,29.598 C27.130,29.598 25.619,30.789 23.998,30.080 C22.378,30.789 20.866,29.598 20.798,29.598 C20.357,29.598 19.998,29.239 19.998,28.797 C19.998,28.356 20.357,27.997 20.798,27.997 C20.811,27.997 22.241,29.181 23.641,28.481 ZM35.998,19.195 C36.440,19.195 36.798,19.555 36.798,19.996 L36.798,21.596 C36.798,22.672 36.087,23.584 35.111,23.888 C34.865,25.570 34.069,30.333 32.664,32.442 L32.537,32.632 C31.511,34.191 29.792,36.798 23.998,36.798 C18.206,36.798 16.486,34.191 15.460,32.632 L15.333,32.442 C13.928,30.333 13.132,25.570 12.887,23.888 C11.910,23.584 11.199,22.672 11.199,21.596 L11.199,19.996 C11.199,19.555 11.557,19.195 11.999,19.195 C12.441,19.195 12.799,19.555 12.799,19.996 L12.799,21.596 C12.799,22.037 13.158,22.396 13.598,22.396 C14.002,22.396 14.342,22.697 14.393,23.097 C14.609,24.826 15.439,29.716 16.664,31.553 L16.796,31.752 C17.754,33.207 19.067,35.198 23.998,35.198 C28.930,35.198 30.243,33.207 31.201,31.752 L31.332,31.553 C32.560,29.713 33.388,24.825 33.604,23.097 C33.655,22.697 33.995,22.396 34.398,22.396 C34.840,22.396 35.198,22.037 35.198,21.596 L35.198,19.996 C35.198,19.555 35.556,19.195 35.998,19.195 Z"/>
</svg>