<svg xmlns="http://www.w3.org/2000/svg" xmlns:xlink="http://www.w3.org/1999/xlink" width="48px" height="36px">
  <path fill-rule="evenodd" fill="rgb(255, 255, 255)" d="M47.936,12.194 L42.845,33.967 C42.780,35.100 41.864,36.001 40.744,36.001 L2.107,36.001 C0.945,36.001 -0.000,35.031 -0.000,33.840 L-0.000,6.248 C-0.000,5.057 0.945,4.087 2.107,4.087 L4.445,4.087 C4.582,4.087 4.706,3.998 4.753,3.865 L5.615,1.391 C5.905,0.559 6.679,-0.001 7.541,-0.001 L17.594,-0.001 C18.456,-0.001 19.230,0.558 19.520,1.391 L20.382,3.865 C20.429,3.998 20.552,4.087 20.690,4.087 L40.744,4.087 C41.906,4.087 42.851,5.057 42.851,6.248 L42.851,9.312 L45.720,9.312 C46.423,9.312 47.075,9.636 47.510,10.201 C47.945,10.767 48.100,11.493 47.936,12.194 ZM41.190,6.248 C41.190,5.996 40.990,5.791 40.744,5.791 L20.690,5.791 C19.853,5.791 19.100,5.247 18.818,4.438 L17.956,1.964 C17.902,1.808 17.756,1.702 17.594,1.702 L7.541,1.702 C7.379,1.702 7.233,1.808 7.179,1.964 L6.317,4.438 C6.035,5.247 5.282,5.791 4.445,5.791 L2.107,5.791 C1.861,5.791 1.661,5.996 1.661,6.248 L1.661,33.840 C1.661,34.092 1.861,34.297 2.107,34.297 L40.744,34.297 C40.990,34.297 41.190,34.092 41.190,33.840 L41.190,6.248 ZM46.206,11.257 C46.136,11.166 45.981,11.015 45.720,11.015 L42.851,11.015 L42.851,26.636 L46.321,11.797 C46.382,11.537 46.275,11.347 46.206,11.257 ZM28.333,31.679 L14.519,31.679 C14.060,31.679 13.688,31.298 13.688,30.828 L13.688,18.269 C13.688,17.799 14.060,17.417 14.519,17.417 L15.821,17.417 L15.821,14.397 C15.821,11.227 18.335,8.648 21.426,8.648 C24.516,8.648 27.030,11.227 27.030,14.397 L27.030,17.417 L28.333,17.417 C28.791,17.417 29.163,17.799 29.163,18.269 L29.163,30.828 C29.163,31.298 28.791,31.679 28.333,31.679 ZM25.369,14.397 C25.369,12.166 23.600,10.351 21.426,10.351 C19.251,10.351 17.482,12.166 17.482,14.397 L17.482,17.417 L25.369,17.417 L25.369,14.397 ZM27.502,19.121 L15.349,19.121 L15.349,29.976 L27.502,29.976 L27.502,19.121 ZM21.426,20.550 C22.836,20.550 23.983,21.727 23.983,23.173 C23.983,24.322 23.260,25.299 22.256,25.654 L22.256,27.723 C22.256,28.194 21.884,28.575 21.426,28.575 C20.967,28.575 20.595,28.194 20.595,27.723 L20.595,25.654 C19.592,25.299 18.868,24.322 18.868,23.173 C18.868,21.727 20.016,20.550 21.426,20.550 ZM21.426,24.093 C21.920,24.093 22.322,23.680 22.322,23.173 C22.322,22.666 21.920,22.254 21.426,22.254 C20.931,22.254 20.529,22.666 20.529,23.173 C20.529,23.680 20.931,24.093 21.426,24.093 Z"/>
</svg>