<svg xmlns="http://www.w3.org/2000/svg" xmlns:xlink="http://www.w3.org/1999/xlink" width="24px" height="24px">
  <path fill-rule="evenodd" fill="rgb(255, 255, 255)" d="M12.000,24.003 C5.382,24.003 -0.003,18.619 -0.003,12.000 C-0.003,5.381 5.382,-0.003 12.000,-0.003 C18.619,-0.003 24.003,5.382 24.003,12.000 C24.003,18.619 18.619,24.003 12.000,24.003 ZM12.000,1.931 C6.448,1.931 1.932,6.448 1.932,12.000 C1.932,17.551 6.448,22.068 12.000,22.068 C17.552,22.068 22.069,17.551 22.069,12.000 C22.069,6.448 17.553,1.931 12.000,1.931 ZM14.463,11.508 C14.312,11.687 14.146,11.839 13.963,11.964 C13.782,12.090 13.609,12.216 13.447,12.341 C13.285,12.467 13.141,12.610 13.016,12.773 C12.890,12.934 12.811,13.137 12.779,13.380 L12.779,13.842 L11.138,13.842 L11.138,13.295 C11.162,12.946 11.229,12.655 11.338,12.420 C11.448,12.185 11.575,11.984 11.721,11.818 C11.867,11.652 12.021,11.508 12.183,11.387 C12.345,11.264 12.495,11.143 12.633,11.023 C12.770,10.901 12.882,10.768 12.967,10.621 C13.052,10.476 13.091,10.292 13.082,10.073 C13.082,9.701 12.991,9.426 12.809,9.247 C12.627,9.068 12.373,8.980 12.049,8.980 C11.830,8.980 11.642,9.022 11.484,9.107 C11.326,9.192 11.196,9.306 11.095,9.448 C10.993,9.591 10.918,9.757 10.870,9.946 C10.821,10.137 10.797,10.341 10.797,10.561 L9.010,10.561 C9.018,10.122 9.093,9.722 9.235,9.357 C9.377,8.991 9.575,8.676 9.830,8.408 C10.086,8.140 10.394,7.932 10.755,7.783 C11.115,7.632 11.518,7.557 11.964,7.557 C12.539,7.557 13.019,7.637 13.404,7.795 C13.790,7.953 14.099,8.150 14.335,8.385 C14.569,8.619 14.738,8.873 14.840,9.143 C14.940,9.416 14.991,9.669 14.991,9.904 C14.991,10.292 14.940,10.613 14.840,10.864 C14.738,11.115 14.612,11.330 14.463,11.508 ZM12.876,16.443 L10.967,16.443 L10.967,14.571 L12.876,14.571 L12.876,16.443 Z"/>
</svg>