<svg xmlns="http://www.w3.org/2000/svg" xmlns:xlink="http://www.w3.org/1999/xlink" width="66px" height="70px">
  <path fill-rule="evenodd" fill="rgb(51, 103, 223)" d="M65.992,14.741 C65.970,13.100 64.689,11.744 63.031,11.595 C49.251,10.325 38.005,3.070 34.297,0.416 C33.523,-0.140 32.473,-0.140 31.698,0.416 C27.998,3.070 16.752,10.325 2.972,11.595 C1.314,11.744 0.039,13.100 0.011,14.741 C-0.156,25.449 1.589,61.803 32.169,69.893 C32.712,70.036 33.284,70.036 33.827,69.893 C64.406,61.810 66.152,25.449 65.992,14.741 Z"/>
  <path fill-rule="evenodd" fill="rgb(255, 255, 255)" d="M44.297,47.000 L41.391,47.000 C40.227,47.000 39.281,46.054 39.281,44.891 L39.281,44.188 L37.172,44.188 C36.435,44.188 35.742,43.795 35.361,43.160 L31.957,37.400 L28.795,38.875 C27.739,39.367 26.485,38.911 25.992,37.854 L25.695,37.217 L23.783,38.108 C23.431,38.273 23.013,38.120 22.849,37.768 L21.066,33.945 C20.902,33.593 21.054,33.175 21.406,33.011 L22.107,32.683 C21.968,32.495 21.847,32.292 21.746,32.076 L21.161,30.802 C20.997,30.450 21.149,30.031 21.501,29.867 L35.511,23.329 C37.268,22.511 39.364,23.273 40.183,25.030 L41.966,28.854 C42.786,30.611 42.023,32.706 40.266,33.526 L35.800,35.608 L38.370,39.968 L39.281,39.968 L39.281,39.265 C39.281,38.102 40.228,37.156 41.391,37.156 L44.297,37.156 C44.685,37.156 45.000,37.471 45.000,37.859 L45.000,46.297 C45.000,46.685 44.685,47.000 44.297,47.000 ZM23.826,36.537 L25.101,35.943 L24.209,34.031 C23.884,33.962 23.576,33.851 23.275,33.690 L22.638,33.988 L23.826,36.537 ZM37.910,33.072 L39.671,32.251 C39.672,32.251 39.672,32.251 39.672,32.251 C40.726,31.760 41.183,30.502 40.692,29.448 L38.909,25.624 C38.417,24.570 37.160,24.112 36.106,24.604 L22.723,30.844 L23.021,31.482 C23.513,32.538 24.767,32.995 25.824,32.502 L31.409,29.898 C32.137,29.558 32.981,29.657 33.611,30.157 L37.176,32.986 C37.386,33.153 37.667,33.186 37.910,33.072 ZM36.091,33.920 L32.737,31.258 C32.527,31.092 32.246,31.059 32.003,31.172 L26.418,33.777 C26.202,33.877 25.978,33.955 25.751,34.010 L27.267,37.260 C27.431,37.612 27.849,37.764 28.201,37.600 C28.286,37.561 36.003,33.962 36.091,33.920 ZM39.281,41.375 L37.968,41.375 C37.719,41.375 37.489,41.243 37.363,41.029 L34.519,36.205 L33.237,36.803 L36.569,42.440 C36.695,42.651 36.926,42.781 37.172,42.781 L39.281,42.781 L39.281,41.375 ZM43.594,38.563 L41.391,38.563 C41.003,38.563 40.688,38.878 40.688,39.266 L40.688,44.891 C40.688,45.278 41.003,45.594 41.391,45.594 L43.594,45.594 L43.594,38.563 ZM27.947,35.391 C27.783,35.039 27.935,34.621 28.287,34.457 L29.561,33.862 C29.913,33.698 30.332,33.851 30.496,34.203 C30.660,34.555 30.508,34.973 30.156,35.137 L28.881,35.731 C28.529,35.895 28.111,35.743 27.947,35.391 Z"/>
</svg>