<svg xmlns="http://www.w3.org/2000/svg" xmlns:xlink="http://www.w3.org/1999/xlink" width="66px" height="70px">
  <path fill-rule="evenodd" fill="rgb(51, 103, 223)" d="M65.992,14.741 C65.971,13.100 64.689,11.744 63.031,11.595 C49.251,10.325 38.005,3.070 34.298,0.416 C33.523,-0.140 32.473,-0.140 31.698,0.416 C27.998,3.070 16.752,10.325 2.972,11.595 C1.314,11.744 0.040,13.100 0.010,14.741 C-0.156,25.449 1.589,61.803 32.169,69.893 C32.712,70.036 33.284,70.036 33.827,69.893 C64.406,61.810 66.152,25.449 65.992,14.741 Z"/>
  <path fill-rule="evenodd" fill="rgb(255, 255, 255)" d="M39.000,45.400 L39.000,46.700 C39.000,47.418 38.384,48.000 37.625,48.000 L29.375,48.000 C28.616,48.000 28.000,47.418 28.000,46.700 L28.000,45.400 C28.000,44.682 28.616,44.100 29.375,44.100 L29.375,35.000 C28.616,35.000 28.000,34.418 28.000,33.700 L28.000,32.400 C28.000,31.682 28.616,31.100 29.375,31.100 L37.625,31.100 C38.384,31.100 39.000,31.682 39.000,32.400 L39.000,33.700 C39.000,34.418 38.384,35.000 37.625,35.000 L37.625,44.100 C38.384,44.100 39.000,44.682 39.000,45.400 ZM37.625,33.700 L37.625,32.400 L29.375,32.400 L29.375,33.700 L30.750,33.700 L30.750,45.400 L29.375,45.400 L29.375,46.700 L37.625,46.700 L37.625,45.400 L36.250,45.400 L36.250,33.700 L37.625,33.700 ZM33.500,29.800 C31.222,29.800 29.375,28.054 29.375,25.900 C29.375,23.746 31.222,22.000 33.500,22.000 C35.778,22.000 37.625,23.746 37.625,25.900 C37.625,28.054 35.778,29.800 33.500,29.800 ZM33.500,23.300 C31.984,23.300 30.750,24.467 30.750,25.900 C30.750,27.333 31.984,28.500 33.500,28.500 C35.016,28.500 36.250,27.333 36.250,25.900 C36.250,24.467 35.016,23.300 33.500,23.300 Z"/>
</svg>