<svg xmlns="http://www.w3.org/2000/svg" xmlns:xlink="http://www.w3.org/1999/xlink" width="66px" height="70px">
  <path fill-rule="evenodd" fill="rgb(51, 103, 223)" d="M65.992,14.741 C65.970,13.100 64.689,11.744 63.031,11.595 C49.251,10.325 38.005,3.070 34.298,0.416 C33.523,-0.140 32.473,-0.140 31.698,0.416 C27.998,3.070 16.752,10.325 2.972,11.595 C1.314,11.744 0.039,13.100 0.011,14.741 C-0.156,25.449 1.589,61.803 32.169,69.893 C32.712,70.036 33.284,70.036 33.827,69.893 C64.406,61.810 66.152,25.449 65.992,14.741 Z"/>
  <path fill-rule="evenodd" fill="rgb(255, 255, 255)" d="M44.431,34.367 C44.391,34.372 44.355,34.377 44.315,34.377 C43.985,34.377 43.696,34.144 43.640,33.810 C43.239,31.449 42.123,29.297 40.409,27.585 C38.694,25.877 36.538,24.758 34.174,24.358 C33.799,24.292 33.550,23.943 33.611,23.568 C33.677,23.198 34.027,22.945 34.397,23.010 C37.045,23.462 39.455,24.707 41.373,26.622 C43.290,28.537 44.538,30.943 44.989,33.587 C45.055,33.957 44.802,34.311 44.431,34.367 ZM34.210,27.362 C35.818,27.635 37.284,28.395 38.445,29.555 C39.607,30.715 40.368,32.179 40.642,33.784 C40.703,34.159 40.454,34.514 40.079,34.575 C40.038,34.580 40.003,34.585 39.962,34.585 C39.633,34.585 39.343,34.352 39.288,34.017 C39.059,32.690 38.435,31.484 37.471,30.522 C36.508,29.560 35.300,28.932 33.971,28.709 C33.596,28.649 33.352,28.289 33.418,27.919 C33.484,27.549 33.834,27.301 34.210,27.362 ZM29.664,31.875 C29.289,32.255 28.904,32.650 28.488,33.030 C28.797,33.713 29.223,34.387 29.857,35.187 C31.166,36.793 32.531,38.034 34.032,38.986 C34.179,39.078 34.352,39.164 34.534,39.255 C34.661,39.321 34.793,39.387 34.925,39.458 L36.528,37.862 C37.040,37.350 37.639,37.082 38.263,37.082 C38.892,37.082 39.485,37.355 39.978,37.867 L42.762,40.658 C43.275,41.165 43.544,41.767 43.544,42.396 C43.544,43.019 43.280,43.626 42.778,44.148 C42.560,44.376 42.336,44.594 42.118,44.802 C41.799,45.111 41.494,45.399 41.231,45.718 C41.225,45.729 41.215,45.734 41.210,45.744 C40.439,46.580 39.455,47.000 38.283,47.000 C38.182,47.000 38.070,46.995 37.964,46.990 C36.224,46.879 34.666,46.225 33.499,45.673 C30.446,44.199 27.772,42.107 25.550,39.458 C23.719,37.259 22.492,35.208 21.670,32.994 C21.335,32.093 20.899,30.715 21.020,29.236 C21.102,28.319 21.472,27.529 22.121,26.881 L23.846,25.143 C23.851,25.138 23.851,25.138 23.856,25.133 C24.363,24.647 24.962,24.388 25.581,24.388 C26.200,24.388 26.788,24.647 27.280,25.133 C27.610,25.437 27.930,25.761 28.234,26.075 C28.386,26.237 28.548,26.399 28.706,26.556 L30.090,27.939 C31.156,29.003 31.156,30.381 30.090,31.444 C29.948,31.586 29.806,31.733 29.664,31.875 ZM29.127,28.907 L27.742,27.524 C27.580,27.357 27.417,27.194 27.260,27.032 C26.950,26.713 26.656,26.414 26.347,26.126 C26.342,26.121 26.337,26.116 26.332,26.110 C26.169,25.948 25.911,25.756 25.591,25.756 C25.332,25.756 25.068,25.882 24.820,26.116 L23.090,27.843 C22.669,28.263 22.441,28.754 22.390,29.347 C22.314,30.274 22.486,31.257 22.958,32.518 C23.724,34.585 24.881,36.510 26.611,38.591 C28.706,41.089 31.227,43.059 34.098,44.447 C35.148,44.949 36.548,45.536 38.055,45.632 C38.131,45.638 38.212,45.638 38.288,45.638 C39.080,45.638 39.683,45.379 40.196,44.832 C40.510,44.462 40.845,44.133 41.175,43.819 C41.393,43.606 41.596,43.413 41.794,43.201 C42.311,42.664 42.311,42.132 41.789,41.616 L38.993,38.824 C38.988,38.819 38.988,38.819 38.983,38.814 C38.826,38.642 38.567,38.445 38.253,38.445 C37.933,38.445 37.659,38.653 37.487,38.824 L35.752,40.557 C35.666,40.643 35.402,40.907 34.981,40.907 C34.813,40.907 34.651,40.866 34.479,40.780 C34.458,40.769 34.438,40.754 34.418,40.745 C34.271,40.654 34.098,40.567 33.915,40.476 C33.713,40.375 33.499,40.268 33.292,40.136 C31.663,39.108 30.187,37.766 28.787,36.044 L28.782,36.038 C28.011,35.061 27.503,34.241 27.143,33.369 C27.138,33.354 27.133,33.339 27.128,33.324 C27.037,33.035 26.956,32.610 27.392,32.174 C27.397,32.164 27.407,32.158 27.417,32.149 C27.859,31.753 28.264,31.348 28.690,30.912 C28.838,30.771 28.980,30.624 29.127,30.477 C29.664,29.940 29.664,29.444 29.127,28.907 Z"/>
</svg>