<svg xmlns="http://www.w3.org/2000/svg" xmlns:xlink="http://www.w3.org/1999/xlink" width="66px" height="70px">
  <path fill-rule="evenodd" fill="rgb(51, 103, 223)" d="M65.992,14.741 C65.971,13.100 64.689,11.744 63.031,11.595 C49.251,10.325 38.005,3.070 34.298,0.416 C33.523,-0.140 32.473,-0.140 31.698,0.416 C27.998,3.070 16.752,10.325 2.972,11.595 C1.314,11.744 0.039,13.100 0.010,14.741 C-0.156,25.449 1.589,61.803 32.169,69.893 C32.712,70.036 33.284,70.036 33.827,69.893 C64.406,61.810 66.151,25.449 65.992,14.741 Z"/>
  <path fill-rule="evenodd" fill="rgb(255, 255, 255)" d="M41.900,47.000 L27.900,47.000 C26.742,47.000 25.800,46.054 25.800,44.891 L25.800,44.188 L25.100,44.188 C23.942,44.188 23.000,43.241 23.000,42.078 L23.000,25.110 C23.000,23.946 23.942,23.000 25.100,23.000 L39.100,23.000 C40.258,23.000 41.200,23.946 41.200,25.110 L41.200,25.812 L41.900,25.812 C43.058,25.812 44.000,26.759 44.000,27.922 L44.000,44.891 C44.000,46.054 43.058,47.000 41.900,47.000 ZM27.200,30.031 L30.000,30.031 L30.000,27.219 L29.880,27.219 C29.693,27.219 29.517,27.292 29.385,27.424 L27.405,29.414 C27.273,29.546 27.200,29.723 27.200,29.911 L27.200,30.031 ZM39.800,25.110 C39.800,24.722 39.486,24.406 39.100,24.406 L25.100,24.406 C24.714,24.406 24.400,24.722 24.400,25.110 L24.400,42.078 C24.400,42.466 24.714,42.781 25.100,42.781 L25.800,42.781 L25.800,29.911 C25.800,29.347 26.018,28.818 26.415,28.419 L28.395,26.430 C28.792,26.032 29.319,25.812 29.880,25.812 L39.800,25.812 L39.800,25.110 ZM42.600,27.922 C42.600,27.534 42.286,27.219 41.900,27.219 L31.400,27.219 L31.400,30.734 C31.400,31.122 31.087,31.438 30.700,31.438 L27.200,31.438 L27.200,44.891 C27.200,45.278 27.514,45.594 27.900,45.594 L41.900,45.594 C42.286,45.594 42.600,45.278 42.600,44.891 L42.600,27.922 ZM40.500,42.781 L29.300,42.781 C28.913,42.781 28.600,42.467 28.600,42.078 C28.600,41.690 28.913,41.375 29.300,41.375 L40.500,41.375 C40.887,41.375 41.200,41.690 41.200,42.078 C41.200,42.467 40.887,42.781 40.500,42.781 ZM40.500,39.969 L29.300,39.969 C28.913,39.969 28.600,39.654 28.600,39.266 C28.600,38.877 28.913,38.563 29.300,38.563 L40.500,38.563 C40.887,38.563 41.200,38.877 41.200,39.266 C41.200,39.654 40.887,39.969 40.500,39.969 ZM40.500,37.156 L29.300,37.156 C28.913,37.156 28.600,36.841 28.600,36.453 C28.600,36.065 28.913,35.750 29.300,35.750 L40.500,35.750 C40.887,35.750 41.200,36.065 41.200,36.453 C41.200,36.841 40.887,37.156 40.500,37.156 ZM40.500,34.344 L29.300,34.344 C28.913,34.344 28.600,34.029 28.600,33.641 C28.600,33.252 28.913,32.937 29.300,32.937 L40.500,32.937 C40.887,32.937 41.200,33.252 41.200,33.641 C41.200,34.029 40.887,34.344 40.500,34.344 Z"/>
</svg>